<svg width="13" height="13" viewBox="0 0 13 13" fill="none" xmlns="http://www.w3.org/2000/svg">
<g clip-path="url(#clip0_3_1584)">
<path d="M6.49682 0.503909C3.18506 0.504612 0.500925 3.1899 0.501628 6.50165C0.501862 7.6484 0.830941 8.77103 1.44979 9.73646L0.516853 12.157C0.467172 12.2858 0.531259 12.4304 0.659995 12.4801C0.688783 12.4912 0.719351 12.4969 0.7502 12.4968C0.778823 12.497 0.807236 12.4921 0.83415 12.4823L3.33268 11.5904C6.1438 13.3412 9.84197 12.4816 11.5927 9.67045C13.3435 6.85931 12.484 3.16116 9.67283 1.41038C8.71991 0.816872 7.61949 0.502808 6.49682 0.503909Z" fill="#5D6C7B"/>
<path d="M9.35555 7.52457C9.35555 7.52457 8.74342 7.22475 8.36014 7.02487C7.9264 6.8015 7.41671 7.21976 7.17685 7.45762C6.80355 7.31422 6.46259 7.09779 6.17394 6.82099C5.8971 6.53239 5.68066 6.19144 5.53731 5.81809C5.77518 5.57774 6.19242 5.06853 5.97006 4.63479C5.77267 4.25102 5.47036 3.63889 5.47036 3.63889C5.42794 3.55471 5.34177 3.50156 5.24749 3.50146H4.74779C4.02007 3.62716 3.49095 4.26212 3.49854 5.00058C3.49854 5.78511 4.43748 7.29223 5.07062 7.92584C5.70376 8.55945 7.21086 9.49792 7.99588 9.49792C8.73433 9.5055 9.3693 8.97637 9.49499 8.24866V7.74897C9.49506 7.65368 9.441 7.56666 9.35555 7.52457Z" fill="#F7F7F7"/>
</g>
<defs>
<clipPath id="clip0_3_1584">
<rect width="12" height="12" fill="white" transform="translate(0.5 0.5)"/>
</clipPath>
</defs>
</svg>
