<svg width="107" height="20" viewBox="0 0 107 20" fill="none" xmlns="http://www.w3.org/2000/svg">
<rect x="0.600006" width="106" height="20" rx="10" fill="#6F73EE"/>
<path d="M12.0781 7.80217L14.0281 12.9222H14.9281L12.0781 5.87217L9.22808 12.9222H10.1281L12.0781 7.80217ZM14.8781 13.2222V14.3222H15.6281V12.4222H8.52808V14.3222H9.27808V13.2222H14.8781ZM16.4273 10.9222C16.4273 11.3822 16.5306 11.7955 16.7373 12.1622C16.9506 12.5222 17.2373 12.8055 17.5973 13.0122C17.9573 13.2188 18.3606 13.3222 18.8073 13.3222C19.2606 13.3222 19.664 13.2188 20.0173 13.0122C20.3773 12.8055 20.6606 12.5222 20.8673 12.1622C21.0806 11.7955 21.1873 11.3822 21.1873 10.9222C21.1873 10.4555 21.0806 10.0422 20.8673 9.68217C20.6606 9.32217 20.3773 9.03883 20.0173 8.83217C19.664 8.6255 19.2606 8.52217 18.8073 8.52217C18.3606 8.52217 17.9573 8.6255 17.5973 8.83217C17.2373 9.03883 16.9506 9.32217 16.7373 9.68217C16.5306 10.0422 16.4273 10.4555 16.4273 10.9222ZM17.2373 10.9222C17.2373 10.6022 17.304 10.3188 17.4373 10.0722C17.5773 9.81883 17.764 9.62217 17.9973 9.48217C18.2373 9.34217 18.5073 9.27217 18.8073 9.27217C19.1073 9.27217 19.374 9.34217 19.6073 9.48217C19.8473 9.62217 20.034 9.81883 20.1673 10.0722C20.3073 10.3188 20.3773 10.6022 20.3773 10.9222C20.3773 11.2422 20.3073 11.5255 20.1673 11.7722C20.034 12.0188 19.8473 12.2155 19.6073 12.3622C19.374 12.5022 19.1073 12.5722 18.8073 12.5722C18.5073 12.5722 18.2373 12.5022 17.9973 12.3622C17.764 12.2155 17.5773 12.0188 17.4373 11.7722C17.304 11.5255 17.2373 11.2422 17.2373 10.9222ZM22.6463 10.9222C22.6463 10.6022 22.713 10.3188 22.8463 10.0722C22.9863 9.81883 23.173 9.62217 23.4063 9.48217C23.6463 9.34217 23.9163 9.27217 24.2163 9.27217C24.463 9.27217 24.693 9.31217 24.9063 9.39217C25.1263 9.4655 25.3163 9.5655 25.4763 9.69217C25.6363 9.81883 25.7496 9.95883 25.8163 10.1122V9.11217C25.6563 8.9255 25.4263 8.78217 25.1263 8.68217C24.833 8.5755 24.5296 8.52217 24.2163 8.52217C23.7696 8.52217 23.3663 8.6255 23.0063 8.83217C22.6463 9.03883 22.3596 9.32217 22.1463 9.68217C21.9396 10.0422 21.8363 10.4555 21.8363 10.9222C21.8363 11.3822 21.9396 11.7955 22.1463 12.1622C22.3596 12.5222 22.6463 12.8055 23.0063 13.0122C23.3663 13.2188 23.7696 13.3222 24.2163 13.3222C24.5296 13.3222 24.833 13.2722 25.1263 13.1722C25.4263 13.0655 25.6563 12.9188 25.8163 12.7322V11.7322C25.7496 11.8788 25.6363 12.0188 25.4763 12.1522C25.3163 12.2788 25.1263 12.3822 24.9063 12.4622C24.693 12.5355 24.463 12.5722 24.2163 12.5722C23.9163 12.5722 23.6463 12.5022 23.4063 12.3622C23.173 12.2155 22.9863 12.0188 22.8463 11.7722C22.713 11.5255 22.6463 11.2422 22.6463 10.9222ZM26.3617 8.62217V9.37217H29.0617V8.62217H26.3617ZM27.3117 8.82217V13.2222H28.1117V8.82217H27.3117ZM33.8171 8.62217H32.9171L31.4971 12.1822L31.8271 12.2222L30.3671 8.62217H29.4171L31.1771 12.5722L29.9171 15.4222H30.8171L33.8171 8.62217ZM38.3214 8.62217H34.5714V13.2222H35.3714V9.37217H37.5214V13.2222H38.3214V8.62217ZM40.2953 11.1722H43.6953V10.4222H40.2953V11.1722ZM43.1753 8.62217V13.2222H43.9753V8.62217H43.1753ZM39.8253 8.62217V13.2222H40.6253V8.62217H39.8253ZM45.8396 11.8722C45.8396 11.6855 45.883 11.5255 45.9696 11.3922C46.0563 11.2588 46.1863 11.1555 46.3596 11.0822C46.5396 11.0088 46.763 10.9722 47.0296 10.9722C47.323 10.9722 47.5863 11.0122 47.8196 11.0922C48.053 11.1655 48.283 11.2822 48.5096 11.4422V10.9722C48.463 10.9122 48.3763 10.8355 48.2496 10.7422C48.123 10.6422 47.953 10.5555 47.7396 10.4822C47.533 10.4022 47.283 10.3622 46.9896 10.3622C46.5896 10.3622 46.243 10.4255 45.9496 10.5522C45.6563 10.6722 45.4296 10.8455 45.2696 11.0722C45.1096 11.2988 45.0296 11.5755 45.0296 11.9022C45.0296 12.2155 45.0996 12.4788 45.2396 12.6922C45.3863 12.8988 45.5796 13.0555 45.8196 13.1622C46.0596 13.2688 46.323 13.3222 46.6096 13.3222C46.9296 13.3222 47.2196 13.2688 47.4796 13.1622C47.7396 13.0488 47.9463 12.8888 48.0996 12.6822C48.2596 12.4688 48.3396 12.2155 48.3396 11.9222L48.1796 11.4222C48.1796 11.7088 48.1196 11.9388 47.9996 12.1122C47.8863 12.2855 47.7263 12.4122 47.5196 12.4922C47.313 12.5722 47.0763 12.6122 46.8096 12.6122C46.6296 12.6122 46.4663 12.5855 46.3196 12.5322C46.173 12.4722 46.0563 12.3888 45.9696 12.2822C45.883 12.1688 45.8396 12.0322 45.8396 11.8722ZM45.8396 9.70217C45.913 9.64883 46.013 9.5855 46.1396 9.51217C46.273 9.43217 46.4296 9.3655 46.6096 9.31217C46.7896 9.25217 46.9896 9.22217 47.2096 9.22217C47.463 9.22217 47.6863 9.28217 47.8796 9.40217C48.0796 9.5155 48.1796 9.68883 48.1796 9.92217V13.2222H48.9796V9.92217C48.9796 9.62217 48.903 9.36883 48.7496 9.16217C48.603 8.9555 48.3963 8.79883 48.1296 8.69217C47.8696 8.57883 47.563 8.52217 47.2096 8.52217C46.7963 8.52217 46.443 8.5855 46.1496 8.71217C45.8563 8.83883 45.623 8.9655 45.4496 9.09217L45.8396 9.70217ZM54.0812 15.4222V8.62217H53.2812V15.4222H54.0812ZM57.9312 10.9222C57.9312 10.4222 57.8279 9.9955 57.6212 9.64217C57.4145 9.28217 57.1379 9.0055 56.7912 8.81217C56.4512 8.61883 56.0712 8.52217 55.6512 8.52217C55.2712 8.52217 54.9345 8.61883 54.6412 8.81217C54.3545 9.0055 54.1279 9.28217 53.9612 9.64217C53.8012 9.9955 53.7212 10.4222 53.7212 10.9222C53.7212 11.4155 53.8012 11.8422 53.9612 12.2022C54.1279 12.5622 54.3545 12.8388 54.6412 13.0322C54.9345 13.2255 55.2712 13.3222 55.6512 13.3222C56.0712 13.3222 56.4512 13.2255 56.7912 13.0322C57.1379 12.8388 57.4145 12.5622 57.6212 12.2022C57.8279 11.8422 57.9312 11.4155 57.9312 10.9222ZM57.1212 10.9222C57.1212 11.2755 57.0479 11.5755 56.9012 11.8222C56.7612 12.0688 56.5712 12.2555 56.3312 12.3822C56.0979 12.5088 55.8379 12.5722 55.5512 12.5722C55.3179 12.5722 55.0879 12.5088 54.8612 12.3822C54.6345 12.2555 54.4479 12.0688 54.3012 11.8222C54.1545 11.5755 54.0812 11.2755 54.0812 10.9222C54.0812 10.5688 54.1545 10.2688 54.3012 10.0222C54.4479 9.7755 54.6345 9.58883 54.8612 9.46217C55.0879 9.3355 55.3179 9.27217 55.5512 9.27217C55.8379 9.27217 56.0979 9.3355 56.3312 9.46217C56.5712 9.58883 56.7612 9.7755 56.9012 10.0222C57.0479 10.2688 57.1212 10.5688 57.1212 10.9222ZM59.3943 11.8722C59.3943 11.6855 59.4377 11.5255 59.5243 11.3922C59.611 11.2588 59.741 11.1555 59.9143 11.0822C60.0943 11.0088 60.3177 10.9722 60.5843 10.9722C60.8777 10.9722 61.141 11.0122 61.3743 11.0922C61.6077 11.1655 61.8377 11.2822 62.0643 11.4422V10.9722C62.0177 10.9122 61.931 10.8355 61.8043 10.7422C61.6777 10.6422 61.5077 10.5555 61.2943 10.4822C61.0877 10.4022 60.8377 10.3622 60.5443 10.3622C60.1443 10.3622 59.7977 10.4255 59.5043 10.5522C59.211 10.6722 58.9843 10.8455 58.8243 11.0722C58.6643 11.2988 58.5843 11.5755 58.5843 11.9022C58.5843 12.2155 58.6543 12.4788 58.7943 12.6922C58.941 12.8988 59.1343 13.0555 59.3743 13.1622C59.6143 13.2688 59.8777 13.3222 60.1643 13.3222C60.4843 13.3222 60.7743 13.2688 61.0343 13.1622C61.2943 13.0488 61.501 12.8888 61.6543 12.6822C61.8143 12.4688 61.8943 12.2155 61.8943 11.9222L61.7343 11.4222C61.7343 11.7088 61.6743 11.9388 61.5543 12.1122C61.441 12.2855 61.281 12.4122 61.0743 12.4922C60.8677 12.5722 60.631 12.6122 60.3643 12.6122C60.1843 12.6122 60.021 12.5855 59.8743 12.5322C59.7277 12.4722 59.611 12.3888 59.5243 12.2822C59.4377 12.1688 59.3943 12.0322 59.3943 11.8722ZM59.3943 9.70217C59.4677 9.64883 59.5677 9.5855 59.6943 9.51217C59.8277 9.43217 59.9843 9.3655 60.1643 9.31217C60.3443 9.25217 60.5443 9.22217 60.7643 9.22217C61.0177 9.22217 61.241 9.28217 61.4343 9.40217C61.6343 9.5155 61.7343 9.68883 61.7343 9.92217V13.2222H62.5343V9.92217C62.5343 9.62217 62.4577 9.36883 62.3043 9.16217C62.1577 8.9555 61.951 8.79883 61.6843 8.69217C61.4243 8.57883 61.1177 8.52217 60.7643 8.52217C60.351 8.52217 59.9977 8.5855 59.7043 8.71217C59.411 8.83883 59.1777 8.9655 59.0043 9.09217L59.3943 9.70217ZM64.2478 10.9222C64.2478 10.6022 64.3145 10.3188 64.4478 10.0722C64.5878 9.81883 64.7745 9.62217 65.0078 9.48217C65.2478 9.34217 65.5178 9.27217 65.8178 9.27217C66.0645 9.27217 66.2945 9.31217 66.5078 9.39217C66.7278 9.4655 66.9178 9.5655 67.0778 9.69217C67.2378 9.81883 67.3512 9.95883 67.4178 10.1122V9.11217C67.2578 8.9255 67.0278 8.78217 66.7278 8.68217C66.4345 8.5755 66.1312 8.52217 65.8178 8.52217C65.3712 8.52217 64.9678 8.6255 64.6078 8.83217C64.2478 9.03883 63.9612 9.32217 63.7478 9.68217C63.5412 10.0422 63.4378 10.4555 63.4378 10.9222C63.4378 11.3822 63.5412 11.7955 63.7478 12.1622C63.9612 12.5222 64.2478 12.8055 64.6078 13.0122C64.9678 13.2188 65.3712 13.3222 65.8178 13.3222C66.1312 13.3222 66.4345 13.2722 66.7278 13.1722C67.0278 13.0655 67.2578 12.9188 67.4178 12.7322V11.7322C67.3512 11.8788 67.2378 12.0188 67.0778 12.1522C66.9178 12.2788 66.7278 12.3822 66.5078 12.4622C66.2945 12.5355 66.0645 12.5722 65.8178 12.5722C65.5178 12.5722 65.2478 12.5022 65.0078 12.3622C64.7745 12.2155 64.5878 12.0188 64.4478 11.7722C64.3145 11.5255 64.2478 11.2422 64.2478 10.9222ZM69.0232 10.9222C69.0232 10.6022 69.0899 10.3188 69.2232 10.0722C69.3632 9.81883 69.5499 9.62217 69.7832 9.48217C70.0232 9.34217 70.2932 9.27217 70.5932 9.27217C70.8399 9.27217 71.0699 9.31217 71.2832 9.39217C71.5032 9.4655 71.6932 9.5655 71.8532 9.69217C72.0132 9.81883 72.1266 9.95883 72.1932 10.1122V9.11217C72.0332 8.9255 71.8032 8.78217 71.5032 8.68217C71.2099 8.5755 70.9066 8.52217 70.5932 8.52217C70.1466 8.52217 69.7432 8.6255 69.3832 8.83217C69.0232 9.03883 68.7366 9.32217 68.5232 9.68217C68.3166 10.0422 68.2132 10.4555 68.2132 10.9222C68.2132 11.3822 68.3166 11.7955 68.5232 12.1622C68.7366 12.5222 69.0232 12.8055 69.3832 13.0122C69.7432 13.2188 70.1466 13.3222 70.5932 13.3222C70.9066 13.3222 71.2099 13.2722 71.5032 13.1722C71.8032 13.0655 72.0332 12.9188 72.1932 12.7322V11.7322C72.1266 11.8788 72.0132 12.0188 71.8532 12.1522C71.6932 12.2788 71.5032 12.3822 71.2832 12.4622C71.0699 12.5355 70.8399 12.5722 70.5932 12.5722C70.2932 12.5722 70.0232 12.5022 69.7832 12.3622C69.5499 12.2155 69.3632 12.0188 69.2232 11.7722C69.0899 11.5255 69.0232 11.2422 69.0232 10.9222ZM74.1886 15.4222V8.62217H73.3886V15.4222H74.1886ZM78.0386 10.9222C78.0386 10.4222 77.9353 9.9955 77.7286 9.64217C77.522 9.28217 77.2453 9.0055 76.8986 8.81217C76.5586 8.61883 76.1786 8.52217 75.7586 8.52217C75.3786 8.52217 75.042 8.61883 74.7486 8.81217C74.462 9.0055 74.2353 9.28217 74.0686 9.64217C73.9086 9.9955 73.8286 10.4222 73.8286 10.9222C73.8286 11.4155 73.9086 11.8422 74.0686 12.2022C74.2353 12.5622 74.462 12.8388 74.7486 13.0322C75.042 13.2255 75.3786 13.3222 75.7586 13.3222C76.1786 13.3222 76.5586 13.2255 76.8986 13.0322C77.2453 12.8388 77.522 12.5622 77.7286 12.2022C77.9353 11.8422 78.0386 11.4155 78.0386 10.9222ZM77.2286 10.9222C77.2286 11.2755 77.1553 11.5755 77.0086 11.8222C76.8686 12.0688 76.6786 12.2555 76.4386 12.3822C76.2053 12.5088 75.9453 12.5722 75.6586 12.5722C75.4253 12.5722 75.1953 12.5088 74.9686 12.3822C74.742 12.2555 74.5553 12.0688 74.4086 11.8222C74.262 11.5755 74.1886 11.2755 74.1886 10.9222C74.1886 10.5688 74.262 10.2688 74.4086 10.0222C74.5553 9.7755 74.742 9.58883 74.9686 9.46217C75.1953 9.3355 75.4253 9.27217 75.6586 9.27217C75.9453 9.27217 76.2053 9.3355 76.4386 9.46217C76.6786 9.58883 76.8686 9.7755 77.0086 10.0222C77.1553 10.2688 77.2286 10.5688 77.2286 10.9222ZM78.7418 10.9222C78.7418 11.3822 78.8451 11.7955 79.0518 12.1622C79.2651 12.5222 79.5518 12.8055 79.9118 13.0122C80.2718 13.2188 80.6751 13.3222 81.1218 13.3222C81.5751 13.3222 81.9784 13.2188 82.3318 13.0122C82.6918 12.8055 82.9751 12.5222 83.1818 12.1622C83.3951 11.7955 83.5018 11.3822 83.5018 10.9222C83.5018 10.4555 83.3951 10.0422 83.1818 9.68217C82.9751 9.32217 82.6918 9.03883 82.3318 8.83217C81.9784 8.6255 81.5751 8.52217 81.1218 8.52217C80.6751 8.52217 80.2718 8.6255 79.9118 8.83217C79.5518 9.03883 79.2651 9.32217 79.0518 9.68217C78.8451 10.0422 78.7418 10.4555 78.7418 10.9222ZM79.5518 10.9222C79.5518 10.6022 79.6184 10.3188 79.7518 10.0722C79.8918 9.81883 80.0784 9.62217 80.3118 9.48217C80.5518 9.34217 80.8218 9.27217 81.1218 9.27217C81.4218 9.27217 81.6884 9.34217 81.9218 9.48217C82.1618 9.62217 82.3484 9.81883 82.4818 10.0722C82.6218 10.3188 82.6918 10.6022 82.6918 10.9222C82.6918 11.2422 82.6218 11.5255 82.4818 11.7722C82.3484 12.0188 82.1618 12.2155 81.9218 12.3622C81.6884 12.5022 81.4218 12.5722 81.1218 12.5722C80.8218 12.5722 80.5518 12.5022 80.3118 12.3622C80.0784 12.2155 79.8918 12.0188 79.7518 11.7722C79.6184 11.5255 79.5518 11.2422 79.5518 10.9222ZM86.1507 11.8222H87.7207V11.0722H86.1507V11.8222ZM87.1507 8.62217V13.2222H87.9507V8.62217H87.1507ZM85.1507 8.62217H84.3507V9.94217C84.3507 10.3888 84.4041 10.7522 84.5107 11.0322C84.6174 11.3055 84.8007 11.5055 85.0607 11.6322C85.3274 11.7588 85.6907 11.8222 86.1507 11.8222V11.0722C85.8974 11.0722 85.6974 11.0355 85.5507 10.9622C85.4041 10.8822 85.3007 10.7588 85.2407 10.5922C85.1807 10.4255 85.1507 10.2088 85.1507 9.94217V8.62217ZM89.4043 8.62217V13.2222H90.2043V8.62217H89.4043ZM91.9043 8.62217L89.9043 10.5222L92.1043 13.2222H93.1043L90.9043 10.5222L92.9043 8.62217H91.9043ZM94.2186 11.8722C94.2186 11.6855 94.2619 11.5255 94.3486 11.3922C94.4352 11.2588 94.5652 11.1555 94.7386 11.0822C94.9186 11.0088 95.1419 10.9722 95.4086 10.9722C95.7019 10.9722 95.9652 11.0122 96.1986 11.0922C96.4319 11.1655 96.6619 11.2822 96.8886 11.4422V10.9722C96.8419 10.9122 96.7552 10.8355 96.6286 10.7422C96.5019 10.6422 96.3319 10.5555 96.1186 10.4822C95.9119 10.4022 95.6619 10.3622 95.3686 10.3622C94.9686 10.3622 94.6219 10.4255 94.3286 10.5522C94.0352 10.6722 93.8086 10.8455 93.6486 11.0722C93.4886 11.2988 93.4086 11.5755 93.4086 11.9022C93.4086 12.2155 93.4786 12.4788 93.6186 12.6922C93.7652 12.8988 93.9586 13.0555 94.1986 13.1622C94.4386 13.2688 94.7019 13.3222 94.9886 13.3222C95.3086 13.3222 95.5986 13.2688 95.8586 13.1622C96.1186 13.0488 96.3252 12.8888 96.4786 12.6822C96.6386 12.4688 96.7186 12.2155 96.7186 11.9222L96.5586 11.4222C96.5586 11.7088 96.4986 11.9388 96.3786 12.1122C96.2652 12.2855 96.1052 12.4122 95.8986 12.4922C95.6919 12.5722 95.4552 12.6122 95.1886 12.6122C95.0086 12.6122 94.8452 12.5855 94.6986 12.5322C94.5519 12.4722 94.4352 12.3888 94.3486 12.2822C94.2619 12.1688 94.2186 12.0322 94.2186 11.8722ZM94.2186 9.70217C94.2919 9.64883 94.3919 9.5855 94.5186 9.51217C94.6519 9.43217 94.8086 9.3655 94.9886 9.31217C95.1686 9.25217 95.3686 9.22217 95.5886 9.22217C95.8419 9.22217 96.0652 9.28217 96.2586 9.40217C96.4586 9.5155 96.5586 9.68883 96.5586 9.92217V13.2222H97.3586V9.92217C97.3586 9.62217 97.2819 9.36883 97.1286 9.16217C96.9819 8.9555 96.7752 8.79883 96.5086 8.69217C96.2486 8.57883 95.9419 8.52217 95.5886 8.52217C95.1752 8.52217 94.8219 8.5855 94.5286 8.71217C94.2352 8.83883 94.0019 8.9655 93.8286 9.09217L94.2186 9.70217Z" fill="white"/>
</svg>
