<svg width="40" height="40" viewBox="0 0 40 40" fill="none" xmlns="http://www.w3.org/2000/svg">
<circle cx="20" cy="20" r="19.35" stroke="#EAEBED" stroke-width="1.3"/>
<path d="M27.9935 16.5148C27.7329 15.9053 27.357 15.3529 26.887 14.8886C26.4167 14.423 25.8621 14.0529 25.2535 13.7986C24.6224 13.5338 23.9455 13.3983 23.2622 13.3999C22.3035 13.3999 21.3681 13.6651 20.5552 14.1659C20.3607 14.2857 20.176 14.4173 20.001 14.5606C19.8259 14.4173 19.6412 14.2857 19.4467 14.1659C18.6339 13.6651 17.6985 13.3999 16.7398 13.3999C16.0494 13.3999 15.3804 13.5335 14.7484 13.7986C14.1378 14.0539 13.5875 14.4212 13.1149 14.8886C12.6443 15.3524 12.2683 15.9049 12.0084 16.5148C11.7381 17.1492 11.6 17.8229 11.6 18.5162C11.6 19.1702 11.7322 19.8517 11.9948 20.545C12.2145 21.1244 12.5296 21.7254 12.9321 22.3322C13.57 23.2926 14.447 24.2943 15.536 25.3097C17.3407 26.9929 19.1278 28.1555 19.2037 28.2027L19.6645 28.5012C19.8687 28.6328 20.1313 28.6328 20.3355 28.5012L20.7963 28.2027C20.8722 28.1536 22.6574 26.9929 24.464 25.3097C25.553 24.2943 26.43 23.2926 27.0679 22.3322C27.4704 21.7254 27.7874 21.1244 28.0052 20.545C28.2677 19.8517 28.4 19.1702 28.4 18.5162C28.4019 17.8229 28.2639 17.1492 27.9935 16.5148V16.5148ZM20.001 26.9477C20.001 26.9477 13.078 22.4678 13.078 18.5162C13.078 16.5148 14.7173 14.8926 16.7398 14.8926C18.1613 14.8926 19.3942 15.6939 20.001 16.8644C20.6077 15.6939 21.8406 14.8926 23.2622 14.8926C25.2846 14.8926 26.924 16.5148 26.924 18.5162C26.924 22.4678 20.001 26.9477 20.001 26.9477Z" fill="#6F73EE"/>
</svg>
