<svg width="603" height="40" viewBox="0 0 603 40" fill="none" xmlns="http://www.w3.org/2000/svg">
<rect x="0.75" y="0.75" width="601.5" height="38.5" rx="4.25" stroke="#6F73EE" stroke-width="1.5"/>
<path d="M563.75 0.75H595C596.413 0.75 597.427 0.750583 598.223 0.81563C599.01 0.879962 599.518 1.00359 599.929 1.21322C600.729 1.62068 601.379 2.27085 601.787 3.07054C601.996 3.48197 602.12 3.9897 602.184 4.77708C602.249 5.57322 602.25 6.58749 602.25 8V32C602.25 33.4125 602.249 34.4268 602.184 35.2229C602.12 36.0103 601.996 36.518 601.787 36.9295C601.379 37.7291 600.729 38.3793 599.929 38.7868C599.518 38.9964 599.01 39.12 598.223 39.1844C597.427 39.2494 596.413 39.25 595 39.25H563.75V0.75Z" fill="#6F73EE" stroke="#6F73EE" stroke-width="1.5"/>
<path d="M590.952 26.8499L585.758 21.656C586.564 20.614 587 19.34 587 18C587 16.396 586.374 14.892 585.242 13.758C584.11 12.624 582.602 12 581 12C579.398 12 577.89 12.626 576.758 13.758C575.624 14.89 575 16.396 575 18C575 19.602 575.626 21.11 576.758 22.242C577.89 23.376 579.396 23.9999 581 23.9999C582.34 23.9999 583.612 23.564 584.654 22.76L589.848 27.9519C589.863 27.9672 589.881 27.9793 589.901 27.9875C589.921 27.9958 589.942 28 589.964 28C589.985 28 590.007 27.9958 590.027 27.9875C590.047 27.9793 590.065 27.9672 590.08 27.9519L590.952 27.0819C590.967 27.0667 590.979 27.0486 590.988 27.0287C590.996 27.0088 591 26.9875 591 26.9659C591 26.9444 590.996 26.9231 590.988 26.9032C590.979 26.8832 590.967 26.8652 590.952 26.8499V26.8499ZM584.168 21.168C583.32 22.014 582.196 22.48 581 22.48C579.804 22.48 578.68 22.014 577.832 21.168C576.986 20.32 576.52 19.196 576.52 18C576.52 16.804 576.986 15.678 577.832 14.832C578.68 13.986 579.804 13.52 581 13.52C582.196 13.52 583.322 13.984 584.168 14.832C585.014 15.68 585.48 16.804 585.48 18C585.48 19.196 585.014 20.322 584.168 21.168Z" fill="white"/>
<rect x="4" y="4" width="76" height="32" rx="5" fill="#F4F7FB"/>
<path d="M20.058 19.82H21.64C22.228 19.82 22.7367 19.736 23.166 19.568C23.6047 19.4 23.9453 19.1527 24.188 18.826C24.4307 18.4993 24.552 18.1073 24.552 17.65C24.552 17.09 24.4307 16.6327 24.188 16.278C23.9453 15.914 23.6047 15.6433 23.166 15.466C22.7367 15.2887 22.228 15.2 21.64 15.2H19.12V25H21.78C22.4147 25 22.9793 24.8973 23.474 24.692C23.978 24.4773 24.3747 24.16 24.664 23.74C24.9627 23.3107 25.112 22.774 25.112 22.13C25.112 21.682 25.028 21.2947 24.86 20.968C24.692 20.6413 24.454 20.3753 24.146 20.17C23.8473 19.9553 23.4973 19.7967 23.096 19.694C22.6947 19.5913 22.256 19.54 21.78 19.54H20.058V20.198H21.78C22.0973 20.198 22.3867 20.24 22.648 20.324C22.9093 20.3987 23.1333 20.5153 23.32 20.674C23.516 20.8327 23.6653 21.0287 23.768 21.262C23.8707 21.4953 23.922 21.7613 23.922 22.06C23.922 22.4613 23.8287 22.802 23.642 23.082C23.4647 23.362 23.2127 23.5767 22.886 23.726C22.5687 23.8753 22.2 23.95 21.78 23.95H20.31V16.25H21.64C22.1347 16.25 22.5453 16.3807 22.872 16.642C23.1987 16.894 23.362 17.2533 23.362 17.72C23.362 18.028 23.2873 18.2893 23.138 18.504C22.9887 18.7187 22.7833 18.882 22.522 18.994C22.2607 19.106 21.9667 19.162 21.64 19.162H20.058V19.82ZM27.0106 22.06H32.5126C32.522 22.004 32.5266 21.948 32.5266 21.892C32.5266 21.836 32.5266 21.78 32.5266 21.724C32.5266 21.0427 32.4006 20.4593 32.1486 19.974C31.8966 19.4793 31.542 19.0967 31.0846 18.826C30.6273 18.5553 30.0953 18.42 29.4886 18.42C28.938 18.42 28.4386 18.532 27.9906 18.756C27.552 18.98 27.1926 19.2927 26.9126 19.694C26.6326 20.0953 26.446 20.562 26.3526 21.094C26.334 21.206 26.32 21.318 26.3106 21.43C26.3013 21.542 26.2966 21.6587 26.2966 21.78C26.2966 22.424 26.4273 23.0027 26.6886 23.516C26.9593 24.02 27.3233 24.4167 27.7806 24.706C28.2473 24.9953 28.77 25.14 29.3486 25.14C29.9086 25.14 30.3753 25.0747 30.7486 24.944C31.122 24.804 31.4393 24.6127 31.7006 24.37C31.962 24.118 32.2 23.8287 32.4146 23.502L31.5046 22.928C31.3646 23.1613 31.1966 23.3667 31.0006 23.544C30.8046 23.712 30.5806 23.8473 30.3286 23.95C30.086 24.0433 29.806 24.09 29.4886 24.09C29.0686 24.09 28.7046 24.0013 28.3966 23.824C28.0886 23.6467 27.8506 23.3853 27.6826 23.04C27.5146 22.6947 27.4306 22.2747 27.4306 21.78L27.4586 21.36C27.4586 20.9587 27.5473 20.6133 27.7246 20.324C27.9113 20.0253 28.1586 19.7967 28.4666 19.638C28.7746 19.4793 29.1153 19.4 29.4886 19.4C29.862 19.4 30.1746 19.4747 30.4266 19.624C30.688 19.764 30.8886 19.9647 31.0286 20.226C31.178 20.478 31.2713 20.772 31.3086 21.108H27.0106V22.06ZM36.3437 21.78C37.0811 21.78 37.6551 21.626 38.0657 21.318C38.4857 21.01 38.6957 20.6227 38.6957 20.156C38.6957 19.8387 38.5977 19.5493 38.4017 19.288C38.2151 19.0267 37.9537 18.8167 37.6177 18.658C37.2817 18.4993 36.9037 18.42 36.4837 18.42C36.0357 18.42 35.6344 18.5133 35.2797 18.7C34.9251 18.8773 34.6451 19.12 34.4397 19.428C34.2344 19.736 34.1317 20.072 34.1317 20.436H35.2657C35.2657 20.2867 35.3077 20.1373 35.3917 19.988C35.4757 19.8293 35.6064 19.6987 35.7837 19.596C35.9704 19.484 36.2037 19.428 36.4837 19.428C36.8197 19.428 37.0811 19.5027 37.2677 19.652C37.4544 19.792 37.5477 19.988 37.5477 20.24C37.5477 20.4733 37.4544 20.674 37.2677 20.842C37.0811 21.0007 36.7731 21.08 36.3437 21.08V21.78ZM36.4557 25.14C36.9131 25.14 37.3331 25.0607 37.7157 24.902C38.0984 24.734 38.4017 24.5007 38.6257 24.202C38.8591 23.894 38.9757 23.53 38.9757 23.11C38.9757 22.5033 38.7377 22.06 38.2617 21.78C37.7857 21.5 37.1464 21.36 36.3437 21.36V22.06C36.6704 22.06 36.9457 22.102 37.1697 22.186C37.4031 22.27 37.5757 22.3913 37.6877 22.55C37.8091 22.7087 37.8697 22.9 37.8697 23.124C37.8697 23.3293 37.8137 23.5113 37.7017 23.67C37.5897 23.8287 37.4264 23.95 37.2117 24.034C37.0064 24.118 36.7544 24.16 36.4557 24.16C35.9704 24.16 35.6204 24.0387 35.4057 23.796C35.1911 23.5533 35.0511 23.278 34.9857 22.97H33.8517C33.9264 23.5953 34.1877 24.1133 34.6357 24.524C35.0931 24.9347 35.6997 25.14 36.4557 25.14ZM44.1516 20.492L46.0416 24.58H47.3016L44.1516 18.07L41.0016 24.58H42.2616L44.1516 20.492ZM47.0216 25V26.26H48.1416V23.95H40.1616V26.26H41.3516V25H47.0216ZM49.9794 22.06H55.4814C55.4907 22.004 55.4954 21.948 55.4954 21.892C55.4954 21.836 55.4954 21.78 55.4954 21.724C55.4954 21.0427 55.3694 20.4593 55.1174 19.974C54.8654 19.4793 54.5107 19.0967 54.0534 18.826C53.5961 18.5553 53.0641 18.42 52.4574 18.42C51.9067 18.42 51.4074 18.532 50.9594 18.756C50.5207 18.98 50.1614 19.2927 49.8814 19.694C49.6014 20.0953 49.4147 20.562 49.3214 21.094C49.3027 21.206 49.2887 21.318 49.2794 21.43C49.2701 21.542 49.2654 21.6587 49.2654 21.78C49.2654 22.424 49.3961 23.0027 49.6574 23.516C49.9281 24.02 50.2921 24.4167 50.7494 24.706C51.2161 24.9953 51.7387 25.14 52.3174 25.14C52.8774 25.14 53.3441 25.0747 53.7174 24.944C54.0907 24.804 54.4081 24.6127 54.6694 24.37C54.9307 24.118 55.1687 23.8287 55.3834 23.502L54.4734 22.928C54.3334 23.1613 54.1654 23.3667 53.9694 23.544C53.7734 23.712 53.5494 23.8473 53.2974 23.95C53.0547 24.0433 52.7747 24.09 52.4574 24.09C52.0374 24.09 51.6734 24.0013 51.3654 23.824C51.0574 23.6467 50.8194 23.3853 50.6514 23.04C50.4834 22.6947 50.3994 22.2747 50.3994 21.78L50.4274 21.36C50.4274 20.9587 50.5161 20.6133 50.6934 20.324C50.8801 20.0253 51.1274 19.7967 51.4354 19.638C51.7434 19.4793 52.0841 19.4 52.4574 19.4C52.8307 19.4 53.1434 19.4747 53.3954 19.624C53.6567 19.764 53.8574 19.9647 53.9974 20.226C54.1467 20.478 54.2401 20.772 54.2774 21.108H49.9794V22.06Z" fill="#282739"/>
<path d="M109.66 16.53L109.73 14.71L101.19 23.67L101.12 25.49L109.66 16.53ZM102.31 15.2H101.12V25.49L102.31 23.95V15.2ZM109.73 14.71L108.54 16.25V25H109.73V14.71ZM112.409 21.78C112.409 21.332 112.503 20.9353 112.689 20.59C112.885 20.2353 113.147 19.96 113.473 19.764C113.809 19.568 114.187 19.47 114.607 19.47C114.953 19.47 115.275 19.526 115.573 19.638C115.881 19.7407 116.147 19.8807 116.371 20.058C116.595 20.2353 116.754 20.4313 116.847 20.646V19.246C116.623 18.9847 116.301 18.784 115.881 18.644C115.471 18.4947 115.046 18.42 114.607 18.42C113.982 18.42 113.417 18.5647 112.913 18.854C112.409 19.1433 112.008 19.54 111.709 20.044C111.42 20.548 111.275 21.1267 111.275 21.78C111.275 22.424 111.42 23.0027 111.709 23.516C112.008 24.02 112.409 24.4167 112.913 24.706C113.417 24.9953 113.982 25.14 114.607 25.14C115.046 25.14 115.471 25.07 115.881 24.93C116.301 24.7807 116.623 24.5753 116.847 24.314V22.914C116.754 23.1193 116.595 23.3153 116.371 23.502C116.147 23.6793 115.881 23.824 115.573 23.936C115.275 24.0387 114.953 24.09 114.607 24.09C114.187 24.09 113.809 23.992 113.473 23.796C113.147 23.5907 112.885 23.3153 112.689 22.97C112.503 22.6247 112.409 22.228 112.409 21.78ZM118.521 18.56V25H119.641V18.56H118.521ZM122.021 18.56L119.221 21.22L122.301 25H123.701L120.621 21.22L123.421 18.56H122.021ZM125.261 23.11C125.261 22.8487 125.322 22.6247 125.443 22.438C125.564 22.2513 125.746 22.1067 125.989 22.004C126.241 21.9013 126.554 21.85 126.927 21.85C127.338 21.85 127.706 21.906 128.033 22.018C128.36 22.1207 128.682 22.284 128.999 22.508V21.85C128.934 21.766 128.812 21.6587 128.635 21.528C128.458 21.388 128.22 21.2667 127.921 21.164C127.632 21.052 127.282 20.996 126.871 20.996C126.311 20.996 125.826 21.0847 125.415 21.262C125.004 21.43 124.687 21.6727 124.463 21.99C124.239 22.3073 124.127 22.6947 124.127 23.152C124.127 23.5907 124.225 23.9593 124.421 24.258C124.626 24.5473 124.897 24.7667 125.233 24.916C125.569 25.0653 125.938 25.14 126.339 25.14C126.787 25.14 127.193 25.0653 127.557 24.916C127.921 24.7573 128.21 24.5333 128.425 24.244C128.649 23.9453 128.761 23.5907 128.761 23.18L128.537 22.48C128.537 22.8813 128.453 23.2033 128.285 23.446C128.126 23.6887 127.902 23.866 127.613 23.978C127.324 24.09 126.992 24.146 126.619 24.146C126.367 24.146 126.138 24.1087 125.933 24.034C125.728 23.95 125.564 23.8333 125.443 23.684C125.322 23.5253 125.261 23.334 125.261 23.11ZM125.261 20.072C125.364 19.9973 125.504 19.9087 125.681 19.806C125.868 19.694 126.087 19.6007 126.339 19.526C126.591 19.442 126.871 19.4 127.179 19.4C127.534 19.4 127.846 19.484 128.117 19.652C128.397 19.8107 128.537 20.0533 128.537 20.38V25H129.657V20.38C129.657 19.96 129.55 19.6053 129.335 19.316C129.13 19.0267 128.84 18.8073 128.467 18.658C128.103 18.4993 127.674 18.42 127.179 18.42C126.6 18.42 126.106 18.5087 125.695 18.686C125.284 18.8633 124.958 19.0407 124.715 19.218L125.261 20.072ZM130.572 18.56V19.61H134.352V18.56H130.572ZM131.902 18.84V25H133.022V18.84H131.902ZM135.476 18.56V25H136.596V18.56H135.476ZM136.134 21.976H138.136C138.546 21.976 138.854 22.0647 139.06 22.242C139.265 22.4193 139.368 22.6713 139.368 22.998C139.368 23.2127 139.321 23.3993 139.228 23.558C139.134 23.7073 138.994 23.824 138.808 23.908C138.63 23.9827 138.406 24.02 138.136 24.02H136.134V25H138.136C138.584 25 138.985 24.93 139.34 24.79C139.694 24.65 139.974 24.4307 140.18 24.132C140.385 23.8333 140.488 23.4553 140.488 22.998C140.488 22.3073 140.259 21.8033 139.802 21.486C139.354 21.1593 138.798 20.996 138.136 20.996H136.134V21.976ZM146.945 21.78C146.945 21.332 147.038 20.9353 147.225 20.59C147.421 20.2353 147.682 19.96 148.009 19.764C148.345 19.568 148.723 19.47 149.143 19.47C149.488 19.47 149.81 19.526 150.109 19.638C150.417 19.7407 150.683 19.8807 150.907 20.058C151.131 20.2353 151.289 20.4313 151.383 20.646V19.246C151.159 18.9847 150.837 18.784 150.417 18.644C150.006 18.4947 149.581 18.42 149.143 18.42C148.517 18.42 147.953 18.5647 147.449 18.854C146.945 19.1433 146.543 19.54 146.245 20.044C145.955 20.548 145.811 21.1267 145.811 21.78C145.811 22.424 145.955 23.0027 146.245 23.516C146.543 24.02 146.945 24.4167 147.449 24.706C147.953 24.9953 148.517 25.14 149.143 25.14C149.581 25.14 150.006 25.07 150.417 24.93C150.837 24.7807 151.159 24.5753 151.383 24.314V22.914C151.289 23.1193 151.131 23.3153 150.907 23.502C150.683 23.6793 150.417 23.824 150.109 23.936C149.81 24.0387 149.488 24.09 149.143 24.09C148.723 24.09 148.345 23.992 148.009 23.796C147.682 23.5907 147.421 23.3153 147.225 22.97C147.038 22.6247 146.945 22.228 146.945 21.78ZM153.63 23.11C153.63 22.8487 153.691 22.6247 153.812 22.438C153.934 22.2513 154.116 22.1067 154.358 22.004C154.61 21.9013 154.923 21.85 155.296 21.85C155.707 21.85 156.076 21.906 156.402 22.018C156.729 22.1207 157.051 22.284 157.368 22.508V21.85C157.303 21.766 157.182 21.6587 157.004 21.528C156.827 21.388 156.589 21.2667 156.29 21.164C156.001 21.052 155.651 20.996 155.24 20.996C154.68 20.996 154.195 21.0847 153.784 21.262C153.374 21.43 153.056 21.6727 152.832 21.99C152.608 22.3073 152.496 22.6947 152.496 23.152C152.496 23.5907 152.594 23.9593 152.79 24.258C152.996 24.5473 153.266 24.7667 153.602 24.916C153.938 25.0653 154.307 25.14 154.708 25.14C155.156 25.14 155.562 25.0653 155.926 24.916C156.29 24.7573 156.58 24.5333 156.794 24.244C157.018 23.9453 157.13 23.5907 157.13 23.18L156.906 22.48C156.906 22.8813 156.822 23.2033 156.654 23.446C156.496 23.6887 156.272 23.866 155.982 23.978C155.693 24.09 155.362 24.146 154.988 24.146C154.736 24.146 154.508 24.1087 154.302 24.034C154.097 23.95 153.934 23.8333 153.812 23.684C153.691 23.5253 153.63 23.334 153.63 23.11ZM153.63 20.072C153.733 19.9973 153.873 19.9087 154.05 19.806C154.237 19.694 154.456 19.6007 154.708 19.526C154.96 19.442 155.24 19.4 155.548 19.4C155.903 19.4 156.216 19.484 156.486 19.652C156.766 19.8107 156.906 20.0533 156.906 20.38V25H158.026V20.38C158.026 19.96 157.919 19.6053 157.704 19.316C157.499 19.0267 157.21 18.8073 156.836 18.658C156.472 18.4993 156.043 18.42 155.548 18.42C154.97 18.42 154.475 18.5087 154.064 18.686C153.654 18.8633 153.327 19.0407 153.084 19.218L153.63 20.072ZM166.039 25H167.299L165.619 18.07L164.989 19.89L166.039 25ZM162.679 24.034L163.099 25.434L165.759 20.31L165.619 18.07L162.679 24.034ZM163.099 25.434L163.519 24.034L160.621 18.07L160.481 20.31L163.099 25.434ZM158.941 25H160.201L161.251 19.89L160.621 18.07L158.941 25ZM167.865 21.78C167.865 22.424 168.01 23.0027 168.299 23.516C168.598 24.02 168.999 24.4167 169.503 24.706C170.007 24.9953 170.572 25.14 171.197 25.14C171.832 25.14 172.396 24.9953 172.891 24.706C173.395 24.4167 173.792 24.02 174.081 23.516C174.38 23.0027 174.529 22.424 174.529 21.78C174.529 21.1267 174.38 20.548 174.081 20.044C173.792 19.54 173.395 19.1433 172.891 18.854C172.396 18.5647 171.832 18.42 171.197 18.42C170.572 18.42 170.007 18.5647 169.503 18.854C168.999 19.1433 168.598 19.54 168.299 20.044C168.01 20.548 167.865 21.1267 167.865 21.78ZM168.999 21.78C168.999 21.332 169.092 20.9353 169.279 20.59C169.475 20.2353 169.736 19.96 170.063 19.764C170.399 19.568 170.777 19.47 171.197 19.47C171.617 19.47 171.99 19.568 172.317 19.764C172.653 19.96 172.914 20.2353 173.101 20.59C173.297 20.9353 173.395 21.332 173.395 21.78C173.395 22.228 173.297 22.6247 173.101 22.97C172.914 23.3153 172.653 23.5907 172.317 23.796C171.99 23.992 171.617 24.09 171.197 24.09C170.777 24.09 170.399 23.992 170.063 23.796C169.736 23.5907 169.475 23.3153 169.279 22.97C169.092 22.6247 168.999 22.228 168.999 21.78ZM175.998 18.56V25H177.118V18.56H175.998ZM179.498 18.56L176.698 21.22L179.778 25H181.178L178.098 21.22L180.898 18.56H179.498ZM182.738 23.11C182.738 22.8487 182.798 22.6247 182.92 22.438C183.041 22.2513 183.223 22.1067 183.466 22.004C183.718 21.9013 184.03 21.85 184.404 21.85C184.814 21.85 185.183 21.906 185.51 22.018C185.836 22.1207 186.158 22.284 186.476 22.508V21.85C186.41 21.766 186.289 21.6587 186.112 21.528C185.934 21.388 185.696 21.2667 185.398 21.164C185.108 21.052 184.758 20.996 184.348 20.996C183.788 20.996 183.302 21.0847 182.892 21.262C182.481 21.43 182.164 21.6727 181.94 21.99C181.716 22.3073 181.604 22.6947 181.604 23.152C181.604 23.5907 181.702 23.9593 181.898 24.258C182.103 24.5473 182.374 24.7667 182.71 24.916C183.046 25.0653 183.414 25.14 183.816 25.14C184.264 25.14 184.67 25.0653 185.034 24.916C185.398 24.7573 185.687 24.5333 185.902 24.244C186.126 23.9453 186.238 23.5907 186.238 23.18L186.014 22.48C186.014 22.8813 185.93 23.2033 185.762 23.446C185.603 23.6887 185.379 23.866 185.09 23.978C184.8 24.09 184.469 24.146 184.096 24.146C183.844 24.146 183.615 24.1087 183.41 24.034C183.204 23.95 183.041 23.8333 182.92 23.684C182.798 23.5253 182.738 23.334 182.738 23.11ZM182.738 20.072C182.84 19.9973 182.98 19.9087 183.158 19.806C183.344 19.694 183.564 19.6007 183.816 19.526C184.068 19.442 184.348 19.4 184.656 19.4C185.01 19.4 185.323 19.484 185.594 19.652C185.874 19.8107 186.014 20.0533 186.014 20.38V25H187.134V20.38C187.134 19.96 187.026 19.6053 186.812 19.316C186.606 19.0267 186.317 18.8073 185.944 18.658C185.58 18.4993 185.15 18.42 184.656 18.42C184.077 18.42 183.582 18.5087 183.172 18.686C182.761 18.8633 182.434 19.0407 182.192 19.218L182.738 20.072ZM188.049 18.56V19.61H191.829V18.56H188.049ZM189.379 18.84V25H190.499V18.84H189.379ZM197.22 15.2V25H198.41V15.2H197.22ZM202.26 15.2L198.046 19.82L202.47 25H203.94L199.488 19.792L203.73 15.2H202.26ZM205.066 15.2V21.78C205.066 22.2653 205.14 22.7133 205.29 23.124C205.448 23.5347 205.672 23.8893 205.962 24.188C206.26 24.4867 206.615 24.72 207.026 24.888C207.436 25.056 207.894 25.14 208.398 25.14C208.902 25.14 209.359 25.056 209.77 24.888C210.18 24.72 210.53 24.4867 210.82 24.188C211.118 23.8893 211.342 23.5347 211.492 23.124C211.65 22.7133 211.73 22.2653 211.73 21.78V15.2H210.54V21.78C210.54 22.452 210.358 22.9933 209.994 23.404C209.63 23.8147 209.098 24.02 208.398 24.02C207.698 24.02 207.166 23.8147 206.802 23.404C206.438 22.9933 206.256 22.452 206.256 21.78V15.2H205.066ZM218.449 21.15H221.711C221.627 21.5327 221.492 21.892 221.305 22.228C221.128 22.564 220.899 22.8627 220.619 23.124C220.339 23.3853 220.003 23.5907 219.611 23.74C219.229 23.88 218.795 23.95 218.309 23.95C217.619 23.95 216.993 23.7867 216.433 23.46C215.873 23.1333 215.425 22.6807 215.089 22.102C214.763 21.5233 214.599 20.856 214.599 20.1C214.599 19.3347 214.763 18.6673 215.089 18.098C215.425 17.5193 215.873 17.0667 216.433 16.74C216.993 16.4133 217.619 16.25 218.309 16.25C219.056 16.25 219.705 16.3993 220.255 16.698C220.806 16.9873 221.235 17.3933 221.543 17.916L222.383 17.146C222.103 16.6887 221.758 16.306 221.347 15.998C220.946 15.69 220.489 15.4567 219.975 15.298C219.471 15.1393 218.916 15.06 218.309 15.06C217.6 15.06 216.942 15.186 216.335 15.438C215.729 15.6807 215.201 16.0307 214.753 16.488C214.305 16.936 213.955 17.468 213.703 18.084C213.461 18.7 213.339 19.372 213.339 20.1C213.339 20.828 213.461 21.5 213.703 22.116C213.955 22.732 214.305 23.2687 214.753 23.726C215.201 24.174 215.729 24.524 216.335 24.776C216.942 25.0187 217.6 25.14 218.309 25.14C219.056 25.14 219.719 25.0047 220.297 24.734C220.885 24.454 221.38 24.076 221.781 23.6C222.183 23.124 222.486 22.5827 222.691 21.976C222.897 21.36 222.999 20.7113 222.999 20.03H218.449V21.15ZM225.455 20.1C225.455 19.3627 225.613 18.7047 225.931 18.126C226.257 17.5473 226.701 17.09 227.261 16.754C227.821 16.418 228.455 16.25 229.165 16.25C229.883 16.25 230.518 16.418 231.069 16.754C231.629 17.09 232.067 17.5473 232.385 18.126C232.711 18.7047 232.875 19.3627 232.875 20.1C232.875 20.8373 232.711 21.4953 232.385 22.074C232.067 22.6527 231.629 23.11 231.069 23.446C230.518 23.782 229.883 23.95 229.165 23.95C228.455 23.95 227.821 23.782 227.261 23.446C226.701 23.11 226.257 22.6527 225.931 22.074C225.613 21.4953 225.455 20.8373 225.455 20.1ZM224.195 20.1C224.195 20.8093 224.316 21.472 224.559 22.088C224.811 22.704 225.161 23.2407 225.609 23.698C226.057 24.146 226.584 24.5007 227.191 24.762C227.797 25.014 228.455 25.14 229.165 25.14C229.883 25.14 230.541 25.014 231.139 24.762C231.745 24.5007 232.273 24.146 232.721 23.698C233.169 23.2407 233.514 22.704 233.757 22.088C234.009 21.472 234.135 20.8093 234.135 20.1C234.135 19.3813 234.009 18.7187 233.757 18.112C233.514 17.496 233.169 16.964 232.721 16.516C232.273 16.0587 231.745 15.704 231.139 15.452C230.541 15.1907 229.883 15.06 229.165 15.06C228.455 15.06 227.797 15.1907 227.191 15.452C226.584 15.704 226.057 16.0587 225.609 16.516C225.161 16.964 224.811 17.496 224.559 18.112C224.316 18.7187 224.195 19.3813 224.195 20.1Z" fill="#5D6C7B"/>
<path d="M64.8347 22.735C64.4394 23.334 63.5606 23.334 63.1653 22.735L61.5591 20.3007C61.1204 19.6359 61.5973 18.75 62.3938 18.75L65.6062 18.75C66.4027 18.75 66.8796 19.6359 66.4409 20.3007L64.8347 22.735Z" fill="#282739"/>
</svg>
