<svg width="40" height="23" viewBox="0 0 40 23" fill="none" xmlns="http://www.w3.org/2000/svg">
<path d="M0.4 14.775H15.6V11.725H12.025L11.6 12.1H5.35L9.475 6.2V13.325L9.175 13.6V18H12.85V0.499999H10.425L0.4 14.775ZM19.7777 15.25L17.5777 21.725L19.9777 22.3L23.0027 16.05L19.7777 15.25ZM35.7861 6.525C35.7861 7.175 35.6445 7.75 35.3611 8.25C35.0778 8.75 34.6861 9.14167 34.1861 9.425C33.7028 9.70833 33.1528 9.85 32.5361 9.85C31.9195 9.85 31.3611 9.70833 30.8611 9.425C30.3778 9.14167 29.9945 8.75 29.7111 8.25C29.4278 7.75 29.2861 7.175 29.2861 6.525C29.2861 5.85833 29.4278 5.28333 29.7111 4.8C29.9945 4.3 30.3778 3.91667 30.8611 3.65C31.3611 3.36667 31.9195 3.225 32.5361 3.225C33.1528 3.225 33.7028 3.36667 34.1861 3.65C34.6861 3.91667 35.0778 4.3 35.3611 4.8C35.6445 5.28333 35.7861 5.85833 35.7861 6.525ZM32.2361 17.95L37.5611 11C38.0445 10.3667 38.4528 9.68333 38.7861 8.95C39.1195 8.2 39.2861 7.39167 39.2861 6.525C39.2861 5.15833 38.9778 4 38.3611 3.05C37.7611 2.1 36.9528 1.38333 35.9361 0.9C34.9195 0.399999 33.7861 0.149999 32.5361 0.149999C31.2861 0.149999 30.1528 0.399999 29.1361 0.9C28.1195 1.38333 27.3028 2.1 26.6861 3.05C26.0861 4 25.7861 5.15833 25.7861 6.525C25.7861 7.375 25.9361 8.15 26.2361 8.85C26.5361 9.55 26.9361 10.15 27.4361 10.65C27.9528 11.15 28.5278 11.5333 29.1611 11.8C29.7945 12.0667 30.4445 12.2 31.1111 12.2C31.7278 12.2 32.2528 12.1333 32.6861 12C33.1195 11.85 33.5445 11.5583 33.9611 11.125L33.3361 11.35L27.7111 17.95H32.2361Z" fill="#282739"/>
</svg>
