<svg width="40" height="40" viewBox="0 0 40 40" fill="none" xmlns="http://www.w3.org/2000/svg">
<circle cx="20" cy="20" r="19.35" stroke="#EAEBED" stroke-width="1.3"/>
<g clip-path="url(#clip0_2_11)">
<path d="M29.703 18.2291C29.4389 17.8978 29.0427 17.7077 28.6159 17.7077H24.7642L22.6756 12.9251C22.5461 12.6286 22.2007 12.4931 21.9041 12.6227C21.6076 12.7522 21.4721 13.0976 21.6017 13.3942L23.4854 17.7077H16.5144L18.3982 13.3942C18.5277 13.0976 18.3923 12.7522 18.0958 12.6227C17.7992 12.4931 17.4538 12.6285 17.3243 12.9251L15.2357 17.7077H11.384C10.9572 17.7077 10.561 17.8978 10.2969 18.2291C10.0376 18.5544 9.94193 18.9726 10.0344 19.3766L12.0913 28.361C12.2349 28.9883 12.7899 29.4265 13.4409 29.4265H26.559C27.21 29.4265 27.7649 28.9883 27.9086 28.361L29.9655 19.3766C30.0579 18.9726 29.9623 18.5544 29.703 18.2291ZM26.559 28.2546H13.4409C13.3414 28.2546 13.2542 28.1893 13.2337 28.0994L11.1767 19.1151C11.1606 19.0446 11.1877 18.9915 11.2133 18.9595C11.237 18.9296 11.2908 18.8796 11.384 18.8796H14.7239L14.5704 19.231C14.441 19.5276 14.5763 19.873 14.8729 20.0025C14.9492 20.0359 15.0288 20.0517 15.1071 20.0517C15.3329 20.0517 15.5482 19.9203 15.6444 19.7001L16.0027 18.8797H23.9973L24.3556 19.7001C24.4518 19.9203 24.667 20.0517 24.8929 20.0517C24.9712 20.0517 25.0507 20.0359 25.127 20.0025C25.4236 19.873 25.559 19.5276 25.4295 19.231L25.276 18.8796H28.616C28.7091 18.8796 28.7629 18.9296 28.7867 18.9595C28.8122 18.9916 28.8394 19.0446 28.8232 19.1151L26.7663 28.0994C26.7457 28.1893 26.6585 28.2546 26.559 28.2546Z" fill="#6F73EE"/>
<path d="M29.703 18.2291C29.4389 17.8978 29.0427 17.7077 28.6159 17.7077H24.7642L22.6756 12.9251C22.5461 12.6286 22.2007 12.4931 21.9041 12.6227C21.6076 12.7522 21.4721 13.0976 21.6017 13.3942L23.4854 17.7077H16.5144L18.3982 13.3942C18.5277 13.0976 18.3923 12.7522 18.0958 12.6227C17.7992 12.4931 17.4538 12.6285 17.3243 12.9251L15.2357 17.7077H11.384C10.9572 17.7077 10.561 17.8978 10.2969 18.2291C10.0376 18.5544 9.94193 18.9726 10.0344 19.3766L12.0913 28.361C12.2349 28.9883 12.7899 29.4265 13.4409 29.4265H26.559C27.21 29.4265 27.7649 28.9883 27.9086 28.361L29.9655 19.3766C30.0579 18.9726 29.9623 18.5544 29.703 18.2291ZM26.559 28.2546H13.4409C13.3414 28.2546 13.2542 28.1893 13.2337 28.0994L11.1767 19.1151C11.1606 19.0446 11.1877 18.9915 11.2133 18.9595C11.237 18.9296 11.2908 18.8796 11.384 18.8796H14.7239L14.5704 19.231C14.441 19.5276 14.5763 19.873 14.8729 20.0025C14.9492 20.0359 15.0288 20.0517 15.1071 20.0517C15.3329 20.0517 15.5482 19.9203 15.6444 19.7001L16.0027 18.8797H23.9973L24.3556 19.7001C24.4518 19.9203 24.667 20.0517 24.8929 20.0517C24.9712 20.0517 25.0507 20.0359 25.127 20.0025C25.4236 19.873 25.559 19.5276 25.4295 19.231L25.276 18.8796H28.616C28.7091 18.8796 28.7629 18.9296 28.7867 18.9595C28.8122 18.9916 28.8394 19.0446 28.8232 19.1151L26.7663 28.0994C26.7457 28.1893 26.6585 28.2546 26.559 28.2546Z" stroke="#6F73EE"/>
<path d="M16.4844 21.4188C16.1608 21.4188 15.8984 21.6812 15.8984 22.0048V26.3017C15.8984 26.6252 16.1608 26.8876 16.4844 26.8876C16.808 26.8876 17.0703 26.6252 17.0703 26.3017V22.0048C17.0703 21.6812 16.808 21.4188 16.4844 21.4188Z" fill="#6F73EE"/>
<path d="M16.4844 21.4188C16.1608 21.4188 15.8984 21.6812 15.8984 22.0048V26.3017C15.8984 26.6252 16.1608 26.8876 16.4844 26.8876C16.808 26.8876 17.0703 26.6252 17.0703 26.3017V22.0048C17.0703 21.6812 16.808 21.4188 16.4844 21.4188Z" stroke="#6F73EE"/>
<path d="M20 21.4188C19.6764 21.4188 19.4141 21.6812 19.4141 22.0048V26.3017C19.4141 26.6252 19.6764 26.8876 20 26.8876C20.3236 26.8876 20.5859 26.6252 20.5859 26.3017V22.0048C20.5859 21.6812 20.3236 21.4188 20 21.4188Z" fill="#6F73EE"/>
<path d="M20 21.4188C19.6764 21.4188 19.4141 21.6812 19.4141 22.0048V26.3017C19.4141 26.6252 19.6764 26.8876 20 26.8876C20.3236 26.8876 20.5859 26.6252 20.5859 26.3017V22.0048C20.5859 21.6812 20.3236 21.4188 20 21.4188Z" stroke="#6F73EE"/>
<path d="M23.5156 21.4188C23.192 21.4188 22.9297 21.6812 22.9297 22.0048V26.3017C22.9297 26.6252 23.192 26.8876 23.5156 26.8876C23.8392 26.8876 24.1016 26.6252 24.1016 26.3017V22.0048C24.1015 21.6812 23.8392 21.4188 23.5156 21.4188Z" fill="#6F73EE"/>
<path d="M23.5156 21.4188C23.192 21.4188 22.9297 21.6812 22.9297 22.0048V26.3017C22.9297 26.6252 23.192 26.8876 23.5156 26.8876C23.8392 26.8876 24.1016 26.6252 24.1016 26.3017V22.0048C24.1015 21.6812 23.8392 21.4188 23.5156 21.4188Z" stroke="#6F73EE"/>
</g>
<defs>
<clipPath id="clip0_2_11">
<rect width="20" height="20" fill="white" transform="translate(10 11)"/>
</clipPath>
</defs>
</svg>
