<svg width="18" height="18" viewBox="0 0 18 18" fill="none" xmlns="http://www.w3.org/2000/svg">
<path d="M8.47256 4.56441V1.23607C6.43976 1.35275 4.53344 2.14268 3.01185 3.49876L5.36506 5.85198C6.25065 5.11475 7.32597 4.66918 8.47256 4.56441V4.56441Z" fill="#5D6C7B"/>
<path d="M4.61916 6.59762L2.26597 4.24444C0.908733 5.76561 0.117822 7.67206 0.000400543 9.70535H3.32889C3.43436 8.55852 3.88084 7.48313 4.61916 6.59762Z" fill="#5D6C7B"/>
<path d="M14.671 9.70535H17.9995C17.8821 7.67206 17.0912 5.76561 15.734 4.24444L13.3808 6.59762C14.1191 7.4831 14.5656 8.55852 14.671 9.70535V9.70535Z" fill="#5D6C7B"/>
<path d="M14.6703 10.76C14.4959 12.676 13.4441 13.845 13.0266 14.2625C12.8203 14.4688 12.8203 14.8033 13.0266 15.0096L14.6266 16.6097C14.7298 16.7128 14.865 16.7644 15.0002 16.7644C15.1354 16.7644 15.2705 16.7128 15.3737 16.6097C16.953 15.0305 17.874 12.9698 18 10.76H14.6703Z" fill="#5D6C7B"/>
<path d="M3.27189 13.7858C3.41919 13.5544 3.64215 13.2058 3.90962 12.7933C3.63544 12.2499 3.40358 11.5724 3.32965 10.76H0C0.126035 12.9698 1.04695 15.0305 2.62628 16.6097C2.72943 16.7129 2.8646 16.7645 2.99978 16.7645C3.13495 16.7645 3.27016 16.7128 3.37331 16.6097L3.92119 16.0618C3.76249 15.9854 3.61607 15.8821 3.48785 15.754C2.95952 15.2256 2.87068 14.4163 3.27189 13.7858V13.7858Z" fill="#5D6C7B"/>
<path d="M9.52734 1.23607V4.56441C10.6739 4.66918 11.7493 5.11472 12.6348 5.85198L14.9881 3.49876C13.4665 2.14264 11.5601 1.35275 9.52734 1.23607V1.23607Z" fill="#5D6C7B"/>
<path d="M7.82843 9.06994C7.01224 9.88613 4.4511 13.8973 4.16177 14.352C4.02905 14.5605 4.059 14.8332 4.23377 15.008C4.40853 15.1828 4.68124 15.2127 4.88978 15.08C5.34446 14.7907 9.35566 12.2295 10.1718 11.4133C10.8179 10.7673 10.8179 9.71604 10.1718 9.06998C9.52578 8.42391 8.4745 8.42388 7.82843 9.06994V9.06994Z" fill="#5D6C7B"/>
</svg>
