<svg width="18" height="18" viewBox="0 0 18 18" fill="none" xmlns="http://www.w3.org/2000/svg">
<g clip-path="url(#clip0_11_16)">
<path d="M14.4525 5.35818L15.5303 4.28043L14.4698 3.21956L13.3169 4.37249C12.2636 3.62609 11.0345 3.16607 9.75004 3.03749V1.49999H11.25V-7.62939e-06H6.75004V1.49999H8.25004V3.03749C6.96555 3.16607 5.73648 3.62609 4.68323 4.37249L3.53029 3.21956L2.46979 4.28043L3.54754 5.35818C2.54153 6.42333 1.86952 7.75982 1.61451 9.20258C1.35951 10.6454 1.53267 12.1312 2.11261 13.4767C2.69255 14.8222 3.65388 15.9683 4.87787 16.7736C6.10186 17.5788 7.53491 18.008 9.00004 18.008C10.4652 18.008 11.8982 17.5788 13.1222 16.7736C14.3462 15.9683 15.3075 14.8222 15.8875 13.4767C16.4674 12.1312 16.6406 10.6454 16.3856 9.20258C16.1306 7.75982 15.4586 6.42333 14.4525 5.35818V5.35818ZM9.00004 16.5C7.81335 16.5 6.65331 16.1481 5.66662 15.4888C4.67992 14.8295 3.91089 13.8925 3.45676 12.7961C3.00264 11.6997 2.88382 10.4933 3.11533 9.32945C3.34684 8.16557 3.91828 7.09647 4.7574 6.25735C5.59651 5.41824 6.66561 4.84679 7.8295 4.61528C8.99339 4.38377 10.1998 4.50259 11.2961 4.95672C12.3925 5.41084 13.3296 6.17988 13.9889 7.16657C14.6481 8.15327 15 9.31331 15 10.5C14.9983 12.0907 14.3655 13.6158 13.2407 14.7407C12.1159 15.8655 10.5908 16.4982 9.00004 16.5V16.5Z" fill="#5D6C7B"/>
<path d="M9 6.00014V10.5001H4.5C4.5 11.3902 4.76392 12.2602 5.25838 13.0002C5.75285 13.7402 6.45565 14.317 7.27792 14.6576C8.10019 14.9982 9.00499 15.0873 9.8779 14.9137C10.7508 14.74 11.5526 14.3115 12.182 13.6821C12.8113 13.0528 13.2399 12.251 13.4135 11.378C13.5872 10.5051 13.498 9.60033 13.1575 8.77806C12.8169 7.9558 12.2401 7.25299 11.5001 6.75853C10.76 6.26406 9.89001 6.00014 9 6.00014V6.00014Z" fill="#5D6C7B"/>
</g>
<defs>
<clipPath id="clip0_11_16">
<rect width="18" height="18" fill="white"/>
</clipPath>
</defs>
</svg>
