<svg width="20" height="18" viewBox="0 0 20 18" fill="none" xmlns="http://www.w3.org/2000/svg">
<path d="M19.1523 6.25427H15.0031L12.6756 0.924855C12.5461 0.628332 12.2007 0.492824 11.9042 0.622395C11.6076 0.751887 11.4722 1.09732 11.6017 1.39388L13.7244 6.25431H6.27561L8.39827 1.39388C8.52776 1.09732 8.39237 0.751926 8.09581 0.622395C7.79929 0.492824 7.45382 0.628254 7.32436 0.924855L4.99686 6.25427H0.847685C0.304911 6.25427 -0.0979012 6.74564 0.0208488 7.26286L2.20581 16.7797C2.29257 17.1576 2.63608 17.4261 3.03265 17.4261H16.9673C17.3639 17.4261 17.7074 17.1576 17.7942 16.7797L19.9791 7.26286C20.0979 6.74568 19.695 6.25427 19.1523 6.25427ZM5.1071 8.0513C5.02882 8.0513 4.94925 8.03552 4.87288 8.00216C4.57632 7.87267 4.44089 7.52728 4.57042 7.23068L5.01057 6.22278H6.28933L5.64432 7.69966C5.54819 7.91993 5.33296 8.0513 5.1071 8.0513ZM7.0703 14.3011C7.0703 14.6247 6.80796 14.8871 6.48436 14.8871C6.16077 14.8871 5.89843 14.6247 5.89843 14.3011V10.0043C5.89843 9.68068 6.16077 9.41833 6.48436 9.41833C6.80796 9.41833 7.0703 9.68068 7.0703 10.0043V14.3011ZM10.5859 14.3011C10.5859 14.6247 10.3236 14.8871 9.99999 14.8871C9.6764 14.8871 9.41405 14.6247 9.41405 14.3011V10.0043C9.41405 9.68068 9.6764 9.41833 9.99999 9.41833C10.3236 9.41833 10.5859 9.68068 10.5859 10.0043V14.3011ZM14.1016 14.3011C14.1016 14.6247 13.8392 14.8871 13.5156 14.8871C13.192 14.8871 12.9297 14.6247 12.9297 14.3011V10.0043C12.9297 9.68068 13.192 9.41833 13.5156 9.41833C13.8392 9.41833 14.1016 9.68068 14.1016 10.0043V14.3011ZM15.1271 8.00216C15.0507 8.03552 14.9712 8.0513 14.8929 8.0513C14.667 8.0513 14.4518 7.91997 14.3556 7.6997L13.7106 6.22282H14.9894L15.4295 7.23071C15.5591 7.52728 15.4236 7.87267 15.1271 8.00216Z" fill="#6F73EE"/>
</svg>
